<svg width="40" height="40" viewBox="0 0 40 40" fill="none" xmlns="http://www.w3.org/2000/svg">
<path d="M36.675 23.2757L39.9579 7.67637C40.1949 6.55007 39.4022 5.47754 38.3326 5.47754H11.0561L10.4196 2.11693C10.261 1.27928 9.57847 0.677734 8.78674 0.677734H1.66667C0.746181 0.677734 0 1.48358 0 2.47766V3.67761C0 4.6717 0.746181 5.47754 1.66667 5.47754H6.51965L11.398 31.2341C10.2309 31.959 9.44445 33.3181 9.44445 34.8763C9.44445 37.1958 11.1856 39.0762 13.3333 39.0762C15.4811 39.0762 17.2222 37.1958 17.2222 34.8763C17.2222 33.7008 16.7745 32.6388 16.0539 31.8765H30.6127C29.8922 32.6388 29.4445 33.7008 29.4445 34.8763C29.4445 37.1958 31.1856 39.0762 33.3333 39.0762C35.4811 39.0762 37.2222 37.1958 37.2222 34.8763C37.2222 33.2135 36.3272 31.7766 35.0292 31.0961L35.4124 29.2755C35.6494 28.1492 34.8567 27.0767 33.7872 27.0767H15.147L14.6925 24.6768H35.0498C35.828 24.6768 36.5026 24.0952 36.675 23.2757Z" fill="white"/>
</svg>
