<svg width="24" height="15" viewBox="0 0 24 15" fill="none" xmlns="http://www.w3.org/2000/svg">
<path d="M14.5805 6.42562C14.6521 6.80422 14.7033 7.18281 14.7033 7.67391C14.7033 11.9611 11.8281 15 7.5 15C3.35609 15 0 11.6439 0 7.5C0 3.35605 3.35609 0 7.5 0C9.52594 0 11.2142 0.73668 12.5239 1.96453L10.4877 3.91883C9.93516 3.38676 8.96316 2.76262 7.5 2.76262C4.94203 2.76262 2.85469 4.88062 2.85469 7.5C2.85469 10.1194 4.94203 12.2374 7.5 12.2374C10.4672 12.2374 11.5825 10.0989 11.7564 9.00406H7.5V6.42559H14.5805V6.42562ZM21.8229 6.67707V4.5H19.6354V6.67707H17.4583V8.86461H19.6354V11.0417H21.8229V8.86461H24V6.67707H21.8229Z" fill="white"/>
</svg>
