<svg width="40" height="39" viewBox="0 0 40 39" fill="none" xmlns="http://www.w3.org/2000/svg">
<path d="M8.04445 16.618C11.2444 22.6551 16.4 27.5829 22.6889 30.6761L27.5778 25.9829C28.1778 25.407 29.0667 25.215 29.8444 25.471C32.3333 26.2603 35.0222 26.6869 37.7778 26.6869C39 26.6869 40 27.6469 40 28.8202V36.2652C40 37.4385 39 38.3984 37.7778 38.3984C16.9111 38.3984 0 22.1644 0 2.13325C0 0.959961 1 0 2.22222 0H10C11.2222 0 12.2222 0.959961 12.2222 2.13325C12.2222 4.7998 12.6667 7.3597 13.4889 9.74894C13.7333 10.4956 13.5556 11.3275 12.9333 11.9248L8.04445 16.618Z" fill="white"/>
</svg>
